<?xml version="1.0" standalone="no"?>
<!DOCTYPE svg PUBLIC "-//W3C//DTD SVG 20010904//EN"
 "http://www.w3.org/TR/2001/REC-SVG-20010904/DTD/svg10.dtd">
<svg version="1.0" xmlns="http://www.w3.org/2000/svg"
 width="500.000000pt" height="500.000000pt" viewBox="0 0 500.000000 500.000000"
 preserveAspectRatio="xMidYMid meet">
<metadata>
Created by potrace 1.10, written by Peter Selinger 2001-2011
</metadata>
<g transform="translate(0.000000,500.000000) scale(0.100000,-0.100000)"
fill="#000000" stroke="none">
<path d="M1245 4343 c-225 -18 -429 -82 -602 -188 -107 -66 -281 -243 -351
-357 -274 -444 -267 -1128 16 -1563 146 -225 351 -382 616 -475 176 -61 196
-62 828 -67 l576 -4 34 29 33 30 0 672 0 672 -33 29 -32 29 -450 0 c-301 0
-457 -4 -473 -11 -49 -22 -57 -54 -57 -219 0 -217 9 -230 159 -230 l91 0 0
-54 c0 -127 -27 -146 -202 -146 -188 0 -276 29 -375 123 -194 184 -191 636 7
821 52 48 124 89 192 107 28 8 205 14 508 19 514 7 535 9 677 75 165 76 311
213 386 361 26 52 157 344 157 350 0 5 -1648 2 -1705 -3z m1628 -60 c-4 -31
-126 -297 -160 -346 -79 -114 -210 -219 -345 -275 -132 -55 -204 -62 -648 -62
-307 0 -416 -3 -474 -15 -263 -50 -419 -282 -403 -599 11 -223 80 -367 221
-458 96 -62 164 -78 330 -78 124 0 145 3 174 20 42 26 71 89 72 153 0 40 -5
53 -29 78 -27 27 -35 29 -105 29 -113 0 -116 5 -116 191 0 209 -52 189 486
189 421 0 435 -1 454 -20 20 -20 20 -33 20 -670 0 -644 0 -650 -21 -671 -20
-20 -24 -20 -582 -16 -533 4 -567 5 -659 26 -180 40 -361 119 -476 208 -249
193 -389 431 -459 781 -24 124 -25 442 0 567 104 527 416 856 912 960 139 29
242 32 1035 31 l775 -1 -2 -22z"/>
<path d="M2990 3975 c-45 -54 34 -139 84 -90 11 12 43 15 153 15 342 0 589
-93 780 -292 205 -215 298 -517 272 -885 -14 -199 -93 -454 -144 -467 -45 -12
-55 -64 -19 -101 38 -38 111 2 100 55 -3 18 3 45 18 77 32 66 71 193 93 299
23 120 24 384 0 504 -83 419 -322 699 -697 818 -124 39 -220 52 -394 52 -115
0 -146 3 -156 15 -16 19 -74 19 -90 0z"/>
<path d="M3052 3608 c-9 -9 -12 -81 -12 -275 l0 -263 -240 0 -240 0 0 214 c0
178 3 216 15 226 37 31 5 100 -47 100 -48 0 -79 -70 -43 -100 13 -10 15 -51
15 -251 l0 -239 23 -5 c12 -3 146 -4 297 -3 l275 3 3 253 c1 138 5 252 8 252
4 0 27 -17 53 -38 25 -21 92 -73 149 -116 65 -49 102 -84 102 -96 0 -46 71
-68 103 -32 37 41 9 102 -47 102 -18 0 -46 14 -75 38 -75 62 -301 233 -314
238 -7 2 -18 -1 -25 -8z m-512 -68 c0 -11 -4 -20 -10 -20 -5 0 -10 9 -10 20 0
11 5 20 10 20 6 0 10 -9 10 -20z"/>
<path d="M3747 3082 c-36 -40 -9 -102 44 -102 22 0 228 -145 222 -156 -1 -3
-47 -38 -102 -79 -67 -50 -110 -75 -132 -77 -47 -4 -71 -46 -49 -85 26 -47
110 -39 110 10 0 17 31 46 130 121 72 54 130 105 130 112 0 7 -56 56 -125 109
-78 60 -125 103 -125 114 0 45 -72 68 -103 33z m54 -45 c-1 -12 -15 -9 -19 4
-3 6 1 10 8 8 6 -3 11 -8 11 -12z"/>
<path d="M3030 2690 c-24 -24 -26 -62 -5 -80 12 -10 15 -59 17 -289 3 -269 4
-276 23 -279 19 -3 97 53 364 260 35 27 65 42 84 42 20 1 36 10 49 27 18 24
19 30 6 55 -11 25 -19 29 -53 29 -35 0 -42 -4 -57 -34 -11 -21 -65 -70 -155
-138 -76 -58 -149 -116 -164 -129 -14 -13 -28 -24 -32 -24 -4 0 -7 104 -7 231
0 191 3 233 15 245 21 21 19 67 -3 87 -25 23 -58 21 -82 -3z m53 -56 c-4 -10
-9 -12 -15 -6 -12 12 -1 35 12 27 5 -3 6 -13 3 -21z"/>
<path d="M2750 2685 c-9 -11 -41 -15 -128 -17 l-117 -3 0 -485 0 -485 410 -3
c225 -1 437 2 471 6 47 6 69 5 88 -5 22 -12 31 -12 54 -1 38 18 44 79 10 102
-32 23 -51 20 -83 -11 l-27 -28 -434 -3 -434 -4 0 431 0 431 89 0 c66 0 92 -4
101 -15 31 -37 100 -5 100 47 0 48 -70 79 -100 43z m760 -933 c0 -13 -12 -22
-22 -16 -10 6 -1 24 13 24 5 0 9 -4 9 -8z"/>
</g>
</svg>
